<svg width="437" height="771" viewBox="0 0 437 771" fill="none" xmlns="http://www.w3.org/2000/svg">
<mask id="path-1-outside-1_81002_102" maskUnits="userSpaceOnUse" x="0" y="0" width="437" height="771" fill="black">
<rect fill="white" width="437" height="771"/>
<path d="M320.08 110.731L332.51 134.552L276.528 270.505L260.507 308.987L248.019 234.752C247.62 233.542 247.145 232.653 246.592 232.086C246.101 231.464 245.008 231.102 243.315 231.002C242.323 230.943 241.121 230.96 239.711 231.055C238.304 231.09 236.57 231.196 234.511 231.37C230.274 231.712 226.682 232.033 223.736 232.333C220.849 232.636 218.454 233.027 216.553 233.508C214.713 233.932 213.359 234.564 212.49 235.402C211.626 236.181 211.155 237.222 211.08 238.522C211.022 239.527 211.183 240.813 211.561 242.377L234.53 364.748C234.716 365.589 235.028 366.29 235.464 366.85C235.9 367.409 236.644 367.72 237.694 367.782C238.161 367.81 238.661 367.78 239.192 367.693C239.724 367.606 240.348 367.465 241.062 367.271C244.81 366.247 248.52 365.4 252.189 364.728C255.856 364.115 259.562 363.325 263.307 362.361C264.257 362.121 265.039 361.782 265.649 361.344C266.319 360.909 266.876 360.408 267.318 359.841C267.761 359.274 268.119 358.642 268.394 357.947C268.726 357.255 269.061 356.533 269.397 355.782L292.856 305.451L434 293.893L45.4697 769.288L44.4873 768.717L166.14 422.39L3 433.528L289.84 110.459L320.08 110.731ZM384.791 1.44238C385.449 0.912404 386.369 0.853039 387.09 1.29395C387.811 1.73532 388.177 2.58287 388.004 3.41016L353.662 167.423C353.489 168.249 352.815 168.877 351.979 168.993C351.142 169.109 350.322 168.686 349.932 167.938L332.51 134.552L386.617 3.1543L385.661 2.53613L289.84 110.459L255.557 110.151C254.712 110.144 253.963 109.605 253.686 108.808C253.408 108.01 253.662 107.124 254.319 106.594L384.791 1.44238Z"/>
</mask>
<path d="M320.08 110.731L332.51 134.552L276.528 270.505L260.507 308.987L248.019 234.752C247.62 233.542 247.145 232.653 246.592 232.086C246.101 231.464 245.008 231.102 243.315 231.002C242.323 230.943 241.121 230.96 239.711 231.055C238.304 231.09 236.57 231.196 234.511 231.37C230.274 231.712 226.682 232.033 223.736 232.333C220.849 232.636 218.454 233.027 216.553 233.508C214.713 233.932 213.359 234.564 212.49 235.402C211.626 236.181 211.155 237.222 211.08 238.522C211.022 239.527 211.183 240.813 211.561 242.377L234.53 364.748C234.716 365.589 235.028 366.29 235.464 366.85C235.9 367.409 236.644 367.72 237.694 367.782C238.161 367.81 238.661 367.78 239.192 367.693C239.724 367.606 240.348 367.465 241.062 367.271C244.81 366.247 248.52 365.4 252.189 364.728C255.856 364.115 259.562 363.325 263.307 362.361C264.257 362.121 265.039 361.782 265.649 361.344C266.319 360.909 266.876 360.408 267.318 359.841C267.761 359.274 268.119 358.642 268.394 357.947C268.726 357.255 269.061 356.533 269.397 355.782L292.856 305.451L434 293.893L45.4697 769.288L44.4873 768.717L166.14 422.39L3 433.528L289.84 110.459L320.08 110.731ZM384.791 1.44238C385.449 0.912404 386.369 0.853039 387.09 1.29395C387.811 1.73532 388.177 2.58287 388.004 3.41016L353.662 167.423C353.489 168.249 352.815 168.877 351.979 168.993C351.142 169.109 350.322 168.686 349.932 167.938L332.51 134.552L386.617 3.1543L385.661 2.53613L289.84 110.459L255.557 110.151C254.712 110.144 253.963 109.605 253.686 108.808C253.408 108.01 253.662 107.124 254.319 106.594L384.791 1.44238Z" fill="url(#paint0_linear_81002_102)"/>
<path d="M320.08 110.731L320.967 110.269L320.689 109.737L320.089 109.731L320.08 110.731ZM276.528 270.505L277.452 270.889L277.453 270.886L276.528 270.505ZM260.507 308.987L259.521 309.153L260.096 312.575L261.43 309.372L260.507 308.987ZM248.019 234.752L249.005 234.586L248.992 234.511L248.968 234.439L248.019 234.752ZM246.592 232.086L245.807 232.706L245.839 232.747L245.876 232.784L246.592 232.086ZM243.315 231.002L243.375 230.004L243.375 230.004L243.315 231.002ZM239.711 231.055L239.736 232.054L239.757 232.054L239.778 232.052L239.711 231.055ZM234.511 231.37L234.591 232.367L234.595 232.367L234.511 231.37ZM223.736 232.333L223.635 231.338L223.632 231.338L223.736 232.333ZM216.553 233.508L216.778 234.482L216.788 234.48L216.798 234.477L216.553 233.508ZM212.49 235.402L213.16 236.145L213.172 236.134L213.185 236.122L212.49 235.402ZM211.08 238.522L210.082 238.465L210.082 238.465L211.08 238.522ZM211.561 242.377L212.543 242.192L212.539 242.167L212.533 242.142L211.561 242.377ZM234.53 364.748L233.547 364.933L233.55 364.948L233.554 364.963L234.53 364.748ZM235.464 366.85L234.675 367.464L234.675 367.464L235.464 366.85ZM237.694 367.782L237.635 368.78L237.635 368.78L237.694 367.782ZM239.192 367.693L239.031 366.706L239.031 366.706L239.192 367.693ZM241.062 367.271L240.798 366.306L240.798 366.306L241.062 367.271ZM252.189 364.728L252.025 363.741L252.017 363.743L252.009 363.744L252.189 364.728ZM263.307 362.361L263.062 361.392L263.057 361.393L263.307 362.361ZM265.649 361.344L265.105 360.505L265.085 360.518L265.067 360.531L265.649 361.344ZM267.318 359.841L268.107 360.456L268.107 360.456L267.318 359.841ZM268.394 357.947L267.492 357.514L267.477 357.547L267.463 357.58L268.394 357.947ZM269.397 355.782L268.491 355.36L268.488 355.367L268.485 355.374L269.397 355.782ZM292.856 305.451L292.775 304.455L292.196 304.502L291.95 305.029L292.856 305.451ZM434 293.893L434.774 294.525L436.263 292.704L433.918 292.896L434 293.893ZM45.4697 769.288L44.967 770.153L45.7043 770.581L46.244 769.921L45.4697 769.288ZM44.4873 768.717L43.5438 768.385L43.2698 769.166L43.9846 769.581L44.4873 768.717ZM166.14 422.39L167.083 422.721L167.586 421.289L166.072 421.392L166.14 422.39ZM3 433.528L2.25221 432.864L0.629078 434.693L3.06812 434.526L3 433.528ZM384.791 1.44238L384.164 0.663631L384.164 0.663772L384.791 1.44238ZM387.09 1.29395L387.612 0.441121L387.612 0.440943L387.09 1.29395ZM388.004 3.41016L388.983 3.6151L388.983 3.6151L388.004 3.41016ZM353.662 167.423L354.641 167.628L354.641 167.628L353.662 167.423ZM351.979 168.993L352.115 169.984L352.116 169.984L351.979 168.993ZM349.932 167.938L349.045 168.4L349.045 168.4L349.932 167.938ZM386.617 3.1543L387.542 3.53506L387.859 2.76609L387.16 2.31454L386.617 3.1543ZM385.661 2.53613L386.204 1.69638L385.483 1.2303L384.913 1.8722L385.661 2.53613ZM255.557 110.151L255.548 111.151L255.548 111.151L255.557 110.151ZM253.686 108.808L252.741 109.136L252.741 109.136L253.686 108.808ZM254.319 106.594L253.692 105.815L253.692 105.815L254.319 106.594ZM320.08 110.731L319.194 111.194L331.623 135.014L332.51 134.552L333.396 134.089L320.967 110.269L320.08 110.731ZM332.51 134.552L331.585 134.171L275.604 270.124L276.528 270.505L277.453 270.886L333.434 134.933L332.51 134.552ZM276.528 270.505L275.605 270.121L259.584 308.603L260.507 308.987L261.43 309.372L277.452 270.889L276.528 270.505ZM260.507 308.987L261.493 308.821L249.005 234.586L248.019 234.752L247.032 234.918L259.521 309.153L260.507 308.987ZM248.019 234.752L248.968 234.439C248.548 233.164 248.012 232.11 247.308 231.388L246.592 232.086L245.876 232.784C246.277 233.195 246.692 233.921 247.069 235.065L248.019 234.752ZM246.592 232.086L247.377 231.466C246.967 230.947 246.37 230.615 245.718 230.399C245.061 230.181 244.271 230.057 243.375 230.004L243.315 231.002L243.256 232C244.052 232.047 244.655 232.154 245.09 232.298C245.53 232.443 245.726 232.603 245.807 232.706L246.592 232.086ZM243.315 231.002L243.375 230.004C242.328 229.942 241.081 229.961 239.644 230.057L239.711 231.055L239.778 232.052C241.162 231.96 242.319 231.945 243.256 232L243.315 231.002ZM239.711 231.055L239.686 230.055C238.252 230.091 236.497 230.198 234.426 230.374L234.511 231.37L234.595 232.367C236.643 232.193 238.356 232.089 239.736 232.054L239.711 231.055ZM234.511 231.37L234.43 230.373C230.19 230.716 226.59 231.037 223.635 231.338L223.736 232.333L223.838 233.328C226.774 233.029 230.359 232.708 234.591 232.367L234.511 231.37ZM223.736 232.333L223.632 231.338C220.718 231.645 218.272 232.042 216.308 232.538L216.553 233.508L216.798 234.477C218.637 234.013 220.981 233.628 223.841 233.328L223.736 232.333ZM216.553 233.508L216.328 232.533C214.403 232.978 212.849 233.667 211.796 234.683L212.49 235.402L213.185 236.122C213.869 235.462 215.024 234.887 216.778 234.482L216.553 233.508ZM212.49 235.402L211.821 234.659C210.736 235.636 210.17 236.936 210.082 238.465L211.08 238.522L212.078 238.58C212.14 237.508 212.515 236.726 213.16 236.145L212.49 235.402ZM211.08 238.522L210.082 238.465C210.016 239.609 210.2 241.002 210.589 242.612L211.561 242.377L212.533 242.142C212.166 240.623 212.028 239.446 212.078 238.58L211.08 238.522ZM211.561 242.377L210.578 242.561L233.547 364.933L234.53 364.748L235.513 364.564L212.543 242.192L211.561 242.377ZM234.53 364.748L233.554 364.963C233.765 365.92 234.131 366.765 234.675 367.464L235.464 366.85L236.253 366.235C235.925 365.815 235.667 365.258 235.507 364.533L234.53 364.748ZM235.464 366.85L234.675 367.464C235.359 368.342 236.439 368.71 237.635 368.78L237.694 367.782L237.754 366.784C236.849 366.73 236.441 366.476 236.253 366.235L235.464 366.85ZM237.694 367.782L237.635 368.78C238.185 368.813 238.76 368.778 239.354 368.68L239.192 367.693L239.031 366.706C238.562 366.783 238.137 366.807 237.753 366.784L237.694 367.782ZM239.192 367.693L239.354 368.68C239.93 368.586 240.589 368.436 241.325 368.235L241.062 367.271L240.798 366.306C240.107 366.495 239.519 366.627 239.031 366.706L239.192 367.693ZM241.062 367.271L241.325 368.235C245.047 367.219 248.729 366.378 252.37 365.711L252.189 364.728L252.009 363.744C248.311 364.421 244.573 365.275 240.798 366.306L241.062 367.271ZM252.189 364.728L252.354 365.714C256.05 365.096 259.784 364.301 263.556 363.33L263.307 362.361L263.057 361.393C259.339 362.35 255.661 363.133 252.025 363.741L252.189 364.728ZM263.307 362.361L263.552 363.331C264.588 363.069 265.494 362.686 266.232 362.156L265.649 361.344L265.067 360.531C264.583 360.878 263.926 361.173 263.062 361.392L263.307 362.361ZM265.649 361.344L266.194 362.182C266.946 361.694 267.588 361.12 268.107 360.456L267.318 359.841L266.53 359.225C266.163 359.696 265.691 360.124 265.105 360.505L265.649 361.344ZM267.318 359.841L268.107 360.456C268.61 359.811 269.016 359.095 269.324 358.314L268.394 357.947L267.463 357.58C267.223 358.19 266.911 358.737 266.53 359.225L267.318 359.841ZM268.394 357.947L269.295 358.381C269.632 357.68 269.97 356.95 270.31 356.191L269.397 355.782L268.485 355.374C268.152 356.117 267.821 356.831 267.492 357.514L268.394 357.947ZM269.397 355.782L270.304 356.205L293.763 305.874L292.856 305.451L291.95 305.029L268.491 355.36L269.397 355.782ZM292.856 305.451L292.938 306.448L434.082 294.889L434 293.893L433.918 292.896L292.775 304.455L292.856 305.451ZM434 293.893L433.226 293.26L44.6954 768.655L45.4697 769.288L46.244 769.921L434.774 294.525L434 293.893ZM45.4697 769.288L45.9724 768.424L44.99 767.852L44.4873 768.717L43.9846 769.581L44.967 770.153L45.4697 769.288ZM44.4873 768.717L45.4308 769.048L167.083 422.721L166.14 422.39L165.196 422.058L43.5438 768.385L44.4873 768.717ZM166.14 422.39L166.072 421.392L2.93188 432.531L3 433.528L3.06812 434.526L166.208 423.387L166.14 422.39ZM3 433.528L3.74779 434.192L290.588 111.123L289.84 110.459L289.092 109.795L2.25221 432.864L3 433.528ZM289.84 110.459L289.831 111.459L320.071 111.731L320.08 110.731L320.089 109.731L289.849 109.459L289.84 110.459ZM384.791 1.44238L385.418 2.22114C385.747 1.9562 386.208 1.92645 386.568 2.14695L387.09 1.29395L387.612 0.440943C386.531 -0.220373 385.151 -0.131394 384.164 0.663631L384.791 1.44238ZM387.09 1.29395L386.568 2.14677C386.929 2.36776 387.112 2.79213 387.025 3.20522L388.004 3.41016L388.983 3.6151C389.243 2.37361 388.693 1.10289 387.612 0.441121L387.09 1.29395ZM388.004 3.41016L387.025 3.20522L352.683 167.218L353.662 167.423L354.641 167.628L388.983 3.6151L388.004 3.41016ZM353.662 167.423L352.683 167.218C352.597 167.63 352.26 167.945 351.841 168.003L351.979 168.993L352.116 169.984C353.37 169.81 354.381 168.868 354.641 167.628L353.662 167.423ZM351.979 168.993L351.842 168.003C351.423 168.06 351.013 167.849 350.818 167.475L349.932 167.938L349.045 168.4C349.631 169.524 350.86 170.157 352.115 169.984L351.979 168.993ZM349.932 167.938L350.818 167.475L333.396 134.089L332.51 134.552L331.623 135.014L349.045 168.4L349.932 167.938ZM332.51 134.552L333.434 134.933L387.542 3.53506L386.617 3.1543L385.693 2.77353L331.585 134.171L332.51 134.552ZM386.617 3.1543L387.16 2.31454L386.204 1.69638L385.661 2.53613L385.118 3.37589L386.074 3.99405L386.617 3.1543ZM385.661 2.53613L384.913 1.8722L289.092 109.795L289.84 110.459L290.588 111.123L386.409 3.20007L385.661 2.53613ZM289.84 110.459L289.849 109.459L255.566 109.151L255.557 110.151L255.548 111.151L289.831 111.459L289.84 110.459ZM255.557 110.151L255.566 109.151C255.144 109.148 254.769 108.878 254.63 108.479L253.686 108.808L252.741 109.136C253.157 110.332 254.28 111.14 255.548 111.151L255.557 110.151ZM253.686 108.808L254.63 108.479C254.491 108.08 254.618 107.637 254.947 107.372L254.319 106.594L253.692 105.815C252.706 106.61 252.325 107.94 252.741 109.136L253.686 108.808ZM254.319 106.594L254.947 107.372L385.419 2.22099L384.791 1.44238L384.164 0.663772L253.692 105.815L254.319 106.594Z" fill="#2C9189" mask="url(#path-1-outside-1_81002_102)"/>
<defs>
<linearGradient id="paint0_linear_81002_102" x1="387.566" y1="-6.61671" x2="49.129" y2="762.398" gradientUnits="userSpaceOnUse">
<stop stop-color="#2C9189"/>
<stop offset="1"/>
</linearGradient>
</defs>
</svg>
